<?xml version="1.0" encoding="utf-8"?>
<!-- Generator: Adobe Illustrator 26.4.1, SVG Export Plug-In . SVG Version: 6.00 Build 0)  -->
<svg version="1.1" id="logo-29" xmlns="http://www.w3.org/2000/svg" xmlns:xlink="http://www.w3.org/1999/xlink" x="0px" y="0px"
	 viewBox="0 0 154 44" style="enable-background:new 0 0 154 44;" xml:space="preserve">
<style type="text/css">
	.st0{fill:#FFFFFF;}
</style>
<path class="st0" d="M7.1,30.5V5.9h-4v24.7h4V30.5z"/>
<path class="st0" d="M9.6,22.3c0,5,3.4,8.6,8.5,8.6s8.5-3.6,8.5-8.6s-3.4-8.6-8.5-8.6S9.6,17.3,9.6,22.3z M13.7,22.3
	c0-2.9,1.8-5,4.4-5c2.7,0,4.4,2.1,4.4,5s-1.8,5-4.4,5S13.7,25.2,13.7,22.3z"/>
<path class="st0" d="M28,22c0,4.8,3.1,8.2,7.7,8.2c2.4,0,4.4-1,5.5-2.6v2.8c0,2.7-1.7,4.5-4.5,4.5c-2.5,0-4.2-1.2-4.5-3.4h-4.1
	c0.5,4.3,3.8,7.1,8.3,7.1c5.3,0,8.7-3.5,8.7-8.9V14.2h-3.6l-0.2,2.2c-1-1.7-3-2.8-5.5-2.8C31.2,13.6,28,17.2,28,22z M32.1,21.9
	c0-2.7,1.7-4.7,4.3-4.7c2.8,0,4.6,2,4.6,4.7s-1.9,4.8-4.6,4.8C33.9,26.7,32.1,24.6,32.1,21.9z"/>
<path class="st0" d="M47.1,22.3c0,5,3.4,8.6,8.5,8.6s8.5-3.6,8.5-8.6s-3.4-8.6-8.5-8.6C50.5,13.7,47.1,17.3,47.1,22.3z M51.2,22.3
	c0-2.9,1.8-5,4.4-5c2.7,0,4.4,2.1,4.4,5s-1.8,5-4.4,5C52.9,27.3,51.2,25.2,51.2,22.3z"/>
<path class="st0" d="M68.5,10.8c1.3,0,2.4-1.1,2.4-2.4S69.8,6,68.5,6c-1.4,0-2.4,1.1-2.4,2.4C66.1,9.8,67.2,10.8,68.5,10.8z
	 M66.5,30.5h4V14.2h-4V30.5z"/>
<path class="st0" d="M74.1,38.1H78v-9.8c1,1.7,3.2,2.7,5.7,2.7c4.8,0,7.7-3.7,7.7-8.8c-0.1-5.1-3-8.5-7.7-8.5c-2.5,0-4.7,1.1-5.7,3
	l-0.2-2.5h-3.6v23.9H74.1z M78.2,22.4c0-2.9,1.8-5,4.6-5s4.5,2.1,4.5,5s-1.7,5-4.5,5S78.2,25.3,78.2,22.4z"/>
<path class="st0" d="M92.4,25.6c0.1,3.2,2.7,5.3,6.6,5.3c3.8,0,6.5-2.1,6.5-5.2c0-2.4-1.5-3.9-4.1-4.6l-2.9-0.7
	c-1.2-0.3-2.1-0.8-2.1-1.8c0-1.1,0.9-1.9,2.4-1.9s2.5,0.9,2.5,2.3h3.7c-0.1-3.2-2.6-5.3-6.1-5.3s-6.1,2.1-6.1,5.2
	c0,2.1,1.2,3.9,4.4,4.7l2.8,0.7c1.1,0.3,1.7,0.8,1.7,1.7c0,1.3-1.2,1.9-2.7,1.9c-1.8,0-2.8-0.8-2.8-2.3H92.4z"/>
<path class="st0" d="M113.8,31c2.2,0,4.3-1,5.3-2.6l0.3,2.1h3.8V14.2h-4v8.6c0,2.9-1.1,4.6-3.8,4.6c-2.1,0-3.5-1-3.5-4.4v-8.8h-4
	v10.2C107.8,28.3,109.9,31,113.8,31z"/>
<path class="st0" d="M130.8,30.5v-9.4c0-2.7,1.6-3.9,3.5-3.9s3.2,1.2,3.2,3.5v9.8h3.9v-9.4c0-2.7,1.5-3.9,3.4-3.9
	c2,0,3.2,1.2,3.2,3.5v9.8h3.9V19.8c0-3.8-2.1-6.2-6.1-6.2c-2.5,0-4.4,1.2-5.2,3.1c-0.9-1.9-2.7-3.1-5.4-3.1c-1.9,0-3.6,0.9-4.6,2.4
	l-0.2-1.9h-3.7v16.4C126.7,30.5,130.8,30.5,130.8,30.5z"/>
</svg>
